<svg xmlns="http://www.w3.org/2000/svg" width="109" height="520" viewBox="0 0 109 520" fill="none">
  <path d="M203 0V67.201C125.931 89.4987 61.3044 167.593 61.3044 257.832C61.3044 287.542 67.2735 316.008 79.0452 342.515C81.8205 348.764 82.7239 355.801 81.6284 362.634L68.3245 445.618C95.4202 439.887 122.328 430.763 150.158 430.763C167.931 430.763 186.368 443.665 203 448.464V512.922C187.825 509.393 160.93 505.396 146.079 498.515L35.592 519.346L35.2763 519.356C29.7479 519.541 25.2742 519.165 21.0824 517.704C16.8662 516.235 13.2784 513.787 9.3596 510.411L9.1599 510.239L8.97954 510.044C1.92545 502.394 -1.25511 491.501 0.453522 480.842L19.6053 361.367C6.58707 328.654 3.05176e-05 293.86 3.05176e-05 257.832C3.05176e-05 132.167 94.3021 25.3862 203 0Z" fill="#00FF94"/>
</svg>
