<svg xmlns="http://www.w3.org/2000/svg" width="16" height="15" viewBox="0 0 16 15" fill="none">
  <path d="M8 0C6.01088 0 4.10322 0.790176 2.6967 2.1967C1.29018 3.60322 0.5 5.51088 0.5 7.5C0.5 9.48912 1.29018 11.3968 2.6967 12.8033C4.10322 14.2098 6.01088 15 8 15C9.98912 15 11.8968 14.2098 13.3033 12.8033C14.7098 11.3968 15.5 9.48912 15.5 7.5C15.5 5.51088 14.7098 3.60322 13.3033 2.1967C11.8968 0.790176 9.98912 0 8 0ZM1.425 8.06667H3.51667C3.55 8.825 3.65583 9.57833 3.83333 10.3167H2.03333C1.69835 9.60882 1.49234 8.84688 1.425 8.06667ZM8.56667 3.56667V0.991667C9.36974 1.29685 10.0296 1.89135 10.4167 2.65833C10.5878 2.94778 10.7378 3.24778 10.8667 3.55833L8.56667 3.56667ZM11.25 4.69167C11.4433 5.4275 11.5583 6.18167 11.5917 6.94167H8.56667V4.69167H11.25ZM7.43333 0.991667V3.56667H5.13333C5.26181 3.25638 5.41219 2.95562 5.58333 2.66667C5.96872 1.89654 6.62883 1.29888 7.43333 0.991667ZM7.43333 4.69167V6.94167H4.41667C4.45 6.18167 4.565 5.4275 4.75833 4.69167H7.43333ZM3.51667 6.93333H1.425C1.49234 6.15312 1.69835 5.39118 2.03333 4.68333H3.83333C3.65482 5.42124 3.54876 6.17482 3.51667 6.93333ZM4.41667 8.06667H7.43333V10.3167H4.75833C4.56576 9.58074 4.45124 8.82658 4.41667 8.06667ZM7.44167 11.4V13.975C6.6386 13.6698 5.9787 13.0753 5.59167 12.3083C5.42052 12.0194 5.27014 11.7186 5.14167 11.4083L7.44167 11.4ZM8.56667 11.4417H10.8667C10.7382 11.752 10.5878 12.0527 10.4167 12.3417C10.0296 13.1086 9.36974 13.7031 8.56667 14.0083V11.4417ZM8.56667 10.275V8.025H11.5833C11.5488 8.78492 11.4342 9.53908 11.2417 10.275H8.56667ZM12.4917 8.025H14.5833C14.516 8.80521 14.31 9.56715 13.975 10.275H12.1667C12.3417 9.55 12.4475 8.81083 12.4833 8.06667L12.4917 8.025ZM12.4917 6.9C12.4542 6.15519 12.3453 5.4157 12.1667 4.69167H13.9667C14.3025 5.4 14.5083 6.16167 14.575 6.94167L12.4917 6.9ZM13.325 3.56667H11.8333C11.5637 2.80846 11.1725 2.09919 10.675 1.46667C11.712 1.93215 12.6127 2.65504 13.2917 3.56667H13.325ZM5.325 1.46667C4.82752 2.09919 4.43629 2.80846 4.16667 3.56667H2.70833C3.38727 2.65504 4.28802 1.93215 5.325 1.46667ZM2.7 11.4667H4.16667C4.43629 12.2249 4.82752 12.9341 5.325 13.5667C4.28515 13.0942 3.38412 12.3625 2.70833 11.4417L2.7 11.4667ZM10.6667 13.5667C11.1641 12.9341 11.5554 12.2249 11.825 11.4667H13.2917C12.6086 12.3661 11.7082 13.0772 10.675 13.5333L10.6667 13.5667Z" fill="#00FF94"/>
</svg>
